# xmcd CD database file
#
# Track frame offsets:
#	150
#	14774
#	31665
#	49392
#	66741
#	80448
#	95246
#	111141
#	127756
#	147346
#	163719
#	178015
#	185819
#	214251
#	231792
#	257708
#	285585
#
# Disc length: 4159 seconds
#
# Revision: 0
# Processed by: cddbd v1.5.1PL0 Copyright (c) Steve Scherf et al.
# Submitted via: CDex 1.51
#
DISCID=03103d11
DTITLE=Rod Macdonald - into the blue
DYEAR=1900
DGENRE=Blues
TTITLE0=Seven days
TTITLE1=I have no Problems with this
TTITLE2=best defense
TTITLE3=days of rain
TTITLE4=here's a song for You
TTITLE5=it's a tough life
TTITLE6=Strings&a hole big&round
TTITLE7=the aucilla river song
TTITLE8=deep down in the everglades
TTITLE9=lightning over the sea
TTITLE10=into the blue
TTITLE11=fear
TTITLE12=sun dancer
TTITLE13=some things I like about America
TTITLE14=It's a sin to tell a lie
TTITLE15=come back, baby
TTITLE16=the cure for insomnia
EXTD=
EXTT0=
EXTT1=
EXTT2=
EXTT3=
EXTT4=
EXTT5=
EXTT6=
EXTT7=
EXTT8=
EXTT9=
EXTT10=
EXTT11=
EXTT12=
EXTT13=
EXTT14=
EXTT15=
EXTT16=
PLAYORDER=
